<svg width="119" height="21" viewBox="0 0 119 21" fill="none" xmlns="http://www.w3.org/2000/svg">
<path d="M17.825 20.6708H12.8261L5.59086 8.82132V21H0V0H5.91973L15.5229 15.4702L25.126 0H30.9142V21H25.126V8.82132L17.825 20.6708Z" fill="white"/>
<path d="M59.5262 21H66.2353L53.5407 0H47.1606L34.5318 21H41.1093L43.3456 17.2476H45.5162H46.6344C49.1996 17.2476 51.3044 15.1411 51.3044 12.5737H46.1082L50.252 5.52978L59.5262 21Z" fill="white"/>
<path d="M112.146 8.55799H99.0569C98.136 8.49216 97.3467 7.76803 97.3467 6.6489C97.3467 5.33229 98.4649 4.80564 99.0569 4.80564H109.844C112.87 4.80564 115.632 2.89655 116.685 0H98.0045C94.9131 0 91.9532 2.89655 91.9532 6.45141C91.9532 11.5204 96.3601 13.1003 98.136 13.1003H111.094C112.475 13.1003 112.804 14.2853 112.804 14.7461C112.804 15.7335 112.08 16.4577 111.225 16.4577H93.7949L92.2163 21H112.015C116.553 21 118.132 16.9185 118.132 15.0752C118 11.4545 115.501 8.55799 112.146 8.55799Z" fill="white"/>
<path d="M81.0346 12.9028C83.7971 12.9028 88.5987 12.837 88.5987 6.31975C88.5987 0.855799 83.9944 0 81.0346 0H62.8149C62.8149 2.5674 64.9197 4.67398 67.485 4.67398H80.6399C81.3634 4.67398 82.8105 4.73981 82.8105 6.51724C82.8105 8.29467 81.4292 8.29467 80.5741 8.29467H62.8807L74.2598 17.9718C76.5619 19.9467 79.456 21 82.4816 21H87.4805L76.7592 12.9028H81.0346Z" fill="white"/>
</svg>
